<?xml version="1.0" standalone="no"?>
<!DOCTYPE svg PUBLIC "-//W3C//DTD SVG 20010904//EN"
 "http://www.w3.org/TR/2001/REC-SVG-20010904/DTD/svg10.dtd">
<svg version="1.0" xmlns="http://www.w3.org/2000/svg"
 width="70.000000pt" height="70.000000pt" viewBox="0 0 70.000000 70.000000"
 preserveAspectRatio="xMidYMid meet">
<metadata>
Created by potrace 1.14, written by Peter Selinger 2001-2017
</metadata>
<g transform="translate(0.000000,70.000000) scale(0.100000,-0.100000)"
fill="#000000" stroke="none">
<path d="M144 635 c-41 -19 -100 -88 -108 -127 -18 -90 0 -134 97 -235 41 -43
107 -112 146 -153 l71 -75 72 76 c239 249 248 262 248 341 0 139 -156 231
-281 165 l-44 -24 -27 20 c-35 26 -130 32 -174 12z m156 -37 c11 -7 20 -16 20
-19 0 -4 -28 -37 -62 -74 -70 -74 -88 -107 -81 -145 12 -68 68 -101 140 -82
30 8 50 9 63 2 77 -41 173 48 141 131 -5 15 -39 57 -75 95 -36 38 -66 71 -66
75 0 13 70 37 106 35 90 -5 161 -87 150 -174 -8 -58 -15 -67 -218 -279 l-69
-72 -62 67 c-34 37 -91 96 -125 132 -104 107 -123 173 -71 257 40 65 145 91
209 51z m117 -109 c32 -33 63 -70 69 -82 14 -24 9 -66 -9 -84 -17 -17 -69 -26
-87 -14 -12 9 -11 13 6 33 49 54 33 89 -39 93 -80 4 -107 -38 -59 -88 22 -23
24 -29 12 -37 -26 -17 -51 -11 -80 19 -25 24 -28 33 -21 58 8 27 126 163 142
163 4 0 33 -27 66 -61z m-82 -99 c4 -7 13 -7 26 0 33 18 42 0 14 -27 -24 -25
-26 -25 -45 -8 -21 19 -27 45 -11 45 6 0 13 -5 16 -10z"/>
</g>
</svg>
