<svg width="244" height="60" viewBox="0 0 244 60" fill="none" xmlns="http://www.w3.org/2000/svg">
<mask id="path-1-inside-1" fill="white">
<path fill-rule="evenodd" clip-rule="evenodd" d="M57.4456 33.5996C61.4913 30.0908 64.05 24.9127 64.05 19.1369C64.05 8.56789 55.4821 0 44.9131 0C39.9485 0 35.4255 1.89043 32.0246 4.99072C28.6238 1.89083 24.1011 0.00066052 19.1369 0.00066052C8.56789 0.00066052 0 8.56855 0 19.1376C0 24.9141 2.55942 30.0929 6.60611 33.6018L31.1727 59.6327C31.6351 60.1227 32.4145 60.1227 32.8769 59.6327L57.4456 33.5996Z"/>
</mask>
<path d="M57.4456 33.5996L55.3985 31.2393L55.2805 31.3416L55.1733 31.4552L57.4456 33.5996ZM32.0246 4.99072L29.9199 7.29979L32.0247 9.21841L34.1295 7.29968L32.0246 4.99072ZM6.60611 33.6018L8.87838 31.4573L8.77107 31.3436L8.65294 31.2412L6.60611 33.6018ZM31.1727 59.6327L33.445 57.4883L33.445 57.4883L31.1727 59.6327ZM32.8769 59.6327L35.1492 61.7772L35.1492 61.7772L32.8769 59.6327ZM59.4927 35.96C64.1935 31.883 67.1744 25.8563 67.1744 19.1369H60.9256C60.9256 23.9691 58.7891 28.2986 55.3985 31.2393L59.4927 35.96ZM67.1744 19.1369C67.1744 6.84234 57.2076 -3.1244 44.9131 -3.1244V3.1244C53.7565 3.1244 60.9256 10.2935 60.9256 19.1369H67.1744ZM44.9131 -3.1244C39.1398 -3.1244 33.8736 -0.922596 29.9198 2.68175L34.1295 7.29968C36.9775 4.70346 40.7572 3.1244 44.9131 3.1244V-3.1244ZM34.1294 2.68164C30.1757 -0.922248 24.9098 -3.12374 19.1369 -3.12374V3.12506C23.2925 3.12506 27.072 4.7039 29.9199 7.29979L34.1294 2.68164ZM19.1369 -3.12374C6.84234 -3.12374 -3.1244 6.843 -3.1244 19.1376H3.1244C3.1244 10.2941 10.2935 3.12506 19.1369 3.12506V-3.12374ZM-3.1244 19.1376C-3.1244 25.8579 -0.142684 31.8853 4.55928 35.9623L8.65294 31.2412C5.26152 28.3005 3.1244 23.9704 3.1244 19.1376H-3.1244ZM33.445 57.4883L8.87838 31.4573L4.33384 35.7462L28.9005 61.7772L33.445 57.4883ZM30.6047 57.4883C31.3754 56.6717 32.6743 56.6717 33.445 57.4883L28.9005 61.7772C30.596 63.5738 33.4537 63.5738 35.1492 61.7772L30.6047 57.4883ZM55.1733 31.4552L30.6047 57.4883L35.1492 61.7772L59.7178 35.7441L55.1733 31.4552Z" fill="#35BDF3" mask="url(#path-1-inside-1)"/>
<mask id="path-3-inside-2" fill="white">
<path fill-rule="evenodd" clip-rule="evenodd" d="M33.0106 5.44512C32.5482 4.95514 31.7688 4.95514 31.3064 5.44512L18.1265 19.4106C18.1209 19.4166 18.1153 19.4226 18.1098 19.4287C15.8683 21.3689 14.4502 24.2351 14.4502 27.4324C14.4502 33.2764 19.1877 38.014 25.0318 38.014C27.7769 38.014 30.2778 36.9687 32.1583 35.2545C34.0387 36.9687 36.5397 38.014 39.2847 38.014C45.1288 38.014 49.8663 33.2764 49.8663 27.4324C49.8663 24.236 48.4491 21.3706 46.2087 19.4304C46.2027 19.4237 46.1966 19.4171 46.1904 19.4106L33.0106 5.44512Z"/>
</mask>
<path d="M31.3064 5.44512L29.0341 3.30067L29.0341 3.30067L31.3064 5.44512ZM33.0106 5.44512L35.2828 3.30067L35.2828 3.30067L33.0106 5.44512ZM18.1265 19.4106L20.3988 21.5551L20.3988 21.555L18.1265 19.4106ZM18.1098 19.4287L20.1546 21.791L20.2966 21.6681L20.4228 21.5291L18.1098 19.4287ZM32.1583 35.2545L34.2631 32.9455L32.1583 31.0267L30.0534 32.9455L32.1583 35.2545ZM46.2087 19.4304L43.8919 21.5267L44.0195 21.6677L44.1633 21.7922L46.2087 19.4304ZM46.1904 19.4106L48.4627 17.2661L48.4627 17.2661L46.1904 19.4106ZM33.5786 7.58957C32.808 8.40619 31.509 8.40619 30.7383 7.58957L35.2828 3.30067C33.5873 1.5041 30.7296 1.5041 29.0341 3.30067L33.5786 7.58957ZM20.3988 21.555L33.5786 7.58956L29.0341 3.30067L15.8543 17.2661L20.3988 21.555ZM20.4228 21.5291C20.4149 21.5378 20.4069 21.5465 20.3988 21.5551L15.8543 17.2661C15.8348 17.2867 15.8157 17.3074 15.7968 17.3282L20.4228 21.5291ZM16.0649 17.0664C13.167 19.5748 11.3258 23.2904 11.3258 27.4324H17.5746C17.5746 25.1798 18.5695 23.1631 20.1546 21.791L16.0649 17.0664ZM11.3258 27.4324C11.3258 35.002 17.4622 41.1384 25.0318 41.1384V34.8896C20.9133 34.8896 17.5746 31.5509 17.5746 27.4324H11.3258ZM25.0318 41.1384C28.5856 41.1384 31.8297 39.7817 34.2631 37.5635L30.0534 32.9455C28.7259 34.1557 26.9681 34.8896 25.0318 34.8896V41.1384ZM30.0534 37.5635C32.4868 39.7817 35.731 41.1384 39.2847 41.1384V34.8896C37.3484 34.8896 35.5907 34.1557 34.2631 32.9455L30.0534 37.5635ZM39.2847 41.1384C46.8543 41.1384 52.9907 35.002 52.9907 27.4324H46.7419C46.7419 31.5509 43.4032 34.8896 39.2847 34.8896V41.1384ZM52.9907 27.4324C52.9907 23.2916 51.1506 19.577 48.2541 17.0686L44.1633 21.7922C45.7476 23.1642 46.7419 25.1804 46.7419 27.4324H52.9907ZM43.9181 21.555C43.9092 21.5455 43.9005 21.5361 43.8919 21.5267L48.5255 17.3341C48.505 17.3114 48.484 17.2888 48.4627 17.2661L43.9181 21.555ZM30.7383 7.58956L43.9182 21.555L48.4627 17.2661L35.2828 3.30067L30.7383 7.58956Z" fill="#35BDF3" mask="url(#path-3-inside-2)"/>
<mask id="path-5-inside-3" fill="white">
<path fill-rule="evenodd" clip-rule="evenodd" d="M25.2921 28.8261C25.4802 29.0706 25.6925 29.2955 25.9254 29.4972L31.9868 35.9198L38.0498 29.4955C38.2817 29.2945 38.4931 29.0705 38.6805 28.8271L38.8447 28.6531H38.8081C39.3239 27.9137 39.6264 27.0144 39.6264 26.0445C39.6264 23.5233 37.5826 21.4795 35.0614 21.4795C33.877 21.4795 32.7979 21.9306 31.9866 22.6703C31.1754 21.9309 30.0965 21.48 28.9124 21.48C26.3912 21.48 24.3474 23.5238 24.3474 26.045C24.3474 27.0147 24.6498 27.9138 25.1654 28.6531H25.1289L25.2921 28.8261Z"/>
</mask>
<path d="M25.2921 28.8261L27.7684 26.9209L27.6725 26.7962L27.5644 26.6817L25.2921 28.8261ZM25.9254 29.4972L28.1977 27.3527L28.0897 27.2383L27.9708 27.1353L25.9254 29.4972ZM31.9868 35.9198L29.7145 38.0643L31.9868 40.472L34.2591 38.0643L31.9868 35.9198ZM38.0498 29.4955L36.0035 27.1344L35.8851 27.2371L35.7775 27.351L38.0498 29.4955ZM38.6805 28.8271L36.4082 26.6827L36.3006 26.7967L36.205 26.9209L38.6805 28.8271ZM38.8447 28.6531L41.117 30.7976L46.0894 25.5287H38.8447V28.6531ZM38.8081 28.6531L36.2456 26.8656L32.8191 31.7775H38.8081V28.6531ZM31.9866 22.6703L29.8819 24.9794L31.987 26.8982L34.0917 24.9791L31.9866 22.6703ZM25.1654 28.6531V31.7775H31.1534L27.7281 26.8659L25.1654 28.6531ZM25.1289 28.6531V25.5287H17.8842L22.8566 30.7976L25.1289 28.6531ZM22.8158 30.7313C23.1321 31.1423 23.4888 31.5202 23.8801 31.859L27.9708 27.1353C27.8963 27.0708 27.8284 26.9989 27.7684 26.9209L22.8158 30.7313ZM34.2591 33.7754L28.1977 27.3527L23.6532 31.6416L29.7145 38.0643L34.2591 33.7754ZM35.7775 27.351L29.7145 33.7754L34.2591 38.0643L40.322 31.6399L35.7775 27.351ZM40.0961 31.8565C40.4857 31.5188 40.841 31.1425 41.156 30.7333L36.205 26.9209C36.1452 26.9985 36.0776 27.0702 36.0035 27.1344L40.0961 31.8565ZM36.5724 26.5087L36.4082 26.6827L40.9528 30.9716L41.117 30.7976L36.5724 26.5087ZM38.8081 31.7775H38.8447V25.5287H38.8081V31.7775ZM41.3706 30.4407C42.2403 29.1939 42.7508 27.6741 42.7508 26.0445H36.502C36.502 26.3547 36.4075 26.6335 36.2456 26.8656L41.3706 30.4407ZM42.7508 26.0445C42.7508 21.7977 39.3081 18.3551 35.0614 18.3551V24.6039C35.857 24.6039 36.502 25.2489 36.502 26.0445H42.7508ZM35.0614 18.3551C33.0682 18.3551 31.2458 19.1176 29.8815 20.3615L34.0917 24.9791C34.3501 24.7435 34.6858 24.6039 35.0614 24.6039V18.3551ZM34.0914 20.3612C32.7272 19.1178 30.9052 18.3556 28.9124 18.3556V24.6044C29.2879 24.6044 29.6236 24.7439 29.8819 24.9794L34.0914 20.3612ZM28.9124 18.3556C24.6657 18.3556 21.223 21.7982 21.223 26.045H27.4718C27.4718 25.2494 28.1168 24.6044 28.9124 24.6044V18.3556ZM21.223 26.045C21.223 27.6742 21.7333 29.1937 22.6026 30.4403L27.7281 26.8659C27.5663 26.6339 27.4718 26.3551 27.4718 26.045H21.223ZM25.1289 31.7775H25.1654V25.5287H25.1289V31.7775ZM27.5644 26.6817L27.4012 26.5087L22.8566 30.7976L23.0199 30.9706L27.5644 26.6817Z" fill="#35BDF3" mask="url(#path-5-inside-3)"/>
<path d="M77.9746 40.3503V39.1729H78.3391C78.9558 39.1729 79.4885 39.0701 79.937 38.8645C80.4043 38.6402 80.6379 38.1169 80.6379 37.2946V23.4176C80.6379 22.5952 80.4043 22.0719 79.937 21.8476C79.4885 21.6234 78.9558 21.5112 78.3391 21.5112H77.9746V20.3338H92.1039L92.2441 25.2398H90.7863L90.6462 24.0343C90.5714 23.3989 90.3378 22.8569 89.9453 22.4083C89.5715 21.9598 88.9454 21.7355 88.067 21.7355H83.4694V29.8374H90.2256V31.2111H83.4694V37.1544C83.4694 38.0328 83.6936 38.5935 84.1422 38.8365C84.5907 39.0607 85.1327 39.1729 85.7682 39.1729H86.6933V40.3503H77.9746Z" fill="#35BDF3"/>
<path d="M106.649 40.6307C104.668 40.6307 103.024 40.2008 101.715 39.3411C100.407 38.4814 99.4259 37.2759 98.7718 35.7247C98.1363 34.1734 97.8186 32.3605 97.8186 30.286C97.8186 28.2114 98.1363 26.4079 98.7718 24.8753C99.4259 23.3428 100.407 22.156 101.715 21.315C103.042 20.4553 104.696 20.0254 106.677 20.0254C108.565 20.0254 110.154 20.4553 111.443 21.315C112.752 22.156 113.742 23.3521 114.415 24.9034C115.106 26.4359 115.452 28.2395 115.452 30.314C115.452 32.3886 115.106 34.2015 114.415 35.7527C113.742 37.2852 112.752 38.4814 111.443 39.3411C110.135 40.2008 108.537 40.6307 106.649 40.6307ZM106.649 39.1168C108.743 39.1168 110.21 38.3412 111.051 36.79C111.911 35.2387 112.34 33.0801 112.34 30.314C112.34 27.5293 111.911 25.3706 111.051 23.8381C110.21 22.3055 108.752 21.5392 106.677 21.5392C104.584 21.5392 103.098 22.3055 102.22 23.8381C101.36 25.3706 100.93 27.5293 100.93 30.314C100.93 33.0801 101.36 35.2387 102.22 36.79C103.098 38.3412 104.575 39.1168 106.649 39.1168Z" fill="#35BDF3"/>
<path d="M120.924 40.3503V39.1729H121.289C121.905 39.1729 122.438 39.0701 122.887 38.8645C123.354 38.6402 123.587 38.1169 123.587 37.2946V23.4176C123.587 22.5952 123.354 22.0719 122.887 21.8476C122.438 21.6234 121.905 21.5112 121.289 21.5112H120.924V20.3338H128.465C133.269 20.3338 135.67 22.1373 135.67 25.7444C135.67 26.735 135.465 27.576 135.054 28.2675C134.642 28.9403 134.119 29.4823 133.484 29.8935C132.867 30.3047 132.222 30.6224 131.549 30.8467L135.39 36.9301C135.876 37.6777 136.343 38.2384 136.792 38.6122C137.24 38.986 137.754 39.1729 138.334 39.1729H138.418V40.3503H138.025C136.866 40.3503 135.96 40.2943 135.306 40.1821C134.67 40.0513 134.156 39.8083 133.764 39.4532C133.371 39.0794 132.96 38.5374 132.53 37.8272L128.746 31.5195H126.419V37.2946C126.419 38.1169 126.643 38.6402 127.092 38.8645C127.559 39.0701 128.101 39.1729 128.718 39.1729H129.082V40.3503H120.924ZM128.381 30.2019C130.026 30.2019 131.147 29.8374 131.745 29.1085C132.362 28.3796 132.671 27.2863 132.671 25.8285C132.671 24.3333 132.344 23.268 131.689 22.6326C131.035 21.9971 129.914 21.6794 128.325 21.6794H126.419V30.2019H128.381Z" fill="#35BDF3"/>
<path d="M142.125 40.3503V39.1729H142.49C143.106 39.1729 143.639 39.0701 144.088 38.8645C144.555 38.6402 144.788 38.1169 144.788 37.2946V23.5297C144.788 22.6513 144.564 22.0999 144.116 21.8757C143.667 21.6327 143.125 21.5112 142.49 21.5112H142.125V20.3338H156.255L156.395 25.2398H154.937L154.797 24.0343C154.722 23.4176 154.498 22.8849 154.124 22.4363C153.769 21.9691 153.171 21.7355 152.33 21.7355H147.62V29.1926H154.376V30.5663H147.62V38.9486H153.031C153.909 38.9486 154.544 38.7243 154.937 38.2758C155.348 37.8085 155.6 37.2665 155.694 36.6498L155.89 35.4443H157.348L157.152 40.3503H142.125Z" fill="#35BDF3"/>
<path d="M163.137 22.997C162.951 22.399 162.708 22.0065 162.409 21.8196C162.109 21.614 161.689 21.5112 161.147 21.5112H160.783V20.3338H168.492V21.5112H167.847C166.726 21.5112 166.165 21.9598 166.165 22.8569C166.165 23.0064 166.184 23.1652 166.221 23.3334C166.259 23.5017 166.315 23.6886 166.389 23.8941L169.473 33.0053C169.754 33.8277 169.996 34.6313 170.202 35.4163C170.408 36.2012 170.585 36.9301 170.735 37.603C170.884 36.9301 171.062 36.2106 171.267 35.4443C171.473 34.678 171.725 33.865 172.024 33.0053L175.108 24.0904C175.183 23.8661 175.239 23.6512 175.276 23.4456C175.332 23.2213 175.36 23.0344 175.36 22.8849C175.36 21.9691 174.744 21.5112 173.51 21.5112H172.865V20.3338H179.706V21.5112H179.173C178.631 21.5112 178.22 21.6514 177.94 21.9317C177.659 22.1934 177.36 22.7821 177.042 23.6979L171.239 40.3503H169.193L163.137 22.997Z" fill="#35BDF3"/>
<path d="M192.357 40.6307C190.376 40.6307 188.731 40.2008 187.423 39.3411C186.115 38.4814 185.133 37.2759 184.479 35.7247C183.844 34.1734 183.526 32.3605 183.526 30.286C183.526 28.2114 183.844 26.4079 184.479 24.8753C185.133 23.3428 186.115 22.156 187.423 21.315C188.75 20.4553 190.404 20.0254 192.385 20.0254C194.273 20.0254 195.861 20.4553 197.151 21.315C198.459 22.156 199.45 23.3521 200.122 24.9034C200.814 26.4359 201.16 28.2395 201.16 30.314C201.16 32.3886 200.814 34.2015 200.122 35.7527C199.45 37.2852 198.459 38.4814 197.151 39.3411C195.843 40.2008 194.245 40.6307 192.357 40.6307ZM192.357 39.1168C194.45 39.1168 195.917 38.3412 196.758 36.79C197.618 35.2387 198.048 33.0801 198.048 30.314C198.048 27.5293 197.618 25.3706 196.758 23.8381C195.917 22.3055 194.46 21.5392 192.385 21.5392C190.292 21.5392 188.806 22.3055 187.927 23.8381C187.068 25.3706 186.638 27.5293 186.638 30.314C186.638 33.0801 187.068 35.2387 187.927 36.79C188.806 38.3412 190.282 39.1168 192.357 39.1168Z" fill="#35BDF3"/>
<path d="M206.632 40.3503V39.1729H206.996C207.613 39.1729 208.146 39.0701 208.594 38.8645C209.061 38.6402 209.295 38.1169 209.295 37.2946V23.4176C209.295 22.5952 209.061 22.0719 208.594 21.8476C208.146 21.6234 207.613 21.5112 206.996 21.5112H206.632V20.3338H214.173C218.976 20.3338 221.378 22.1373 221.378 25.7444C221.378 26.735 221.172 27.576 220.761 28.2675C220.35 28.9403 219.827 29.4823 219.191 29.8935C218.574 30.3047 217.93 30.6224 217.257 30.8467L221.097 36.9301C221.583 37.6777 222.051 38.2384 222.499 38.6122C222.948 38.986 223.462 39.1729 224.041 39.1729H224.125V40.3503H223.733C222.574 40.3503 221.667 40.2943 221.013 40.1821C220.378 40.0513 219.864 39.8083 219.471 39.4532C219.079 39.0794 218.668 38.5374 218.238 37.8272L214.453 31.5195H212.126V37.2946C212.126 38.1169 212.351 38.6402 212.799 38.8645C213.266 39.0701 213.808 39.1729 214.425 39.1729H214.79V40.3503H206.632ZM214.089 30.2019C215.734 30.2019 216.855 29.8374 217.453 29.1085C218.07 28.3796 218.378 27.2863 218.378 25.8285C218.378 24.3333 218.051 23.268 217.397 22.6326C216.743 21.9971 215.621 21.6794 214.033 21.6794H212.126V30.2019H214.089Z" fill="#35BDF3"/>
<path d="M230.376 40.3503V39.1729H231.021C231.638 39.1729 232.17 39.0701 232.619 38.8645C233.086 38.6402 233.32 38.1169 233.32 37.2946V31.9961L228.133 22.997C227.834 22.455 227.545 22.0719 227.264 21.8476C227.003 21.6234 226.629 21.5112 226.143 21.5112H225.779V20.3338H233.488V21.5112H232.451C231.946 21.5112 231.61 21.6047 231.441 21.7916C231.292 21.9598 231.217 22.1653 231.217 22.4083C231.217 22.67 231.273 22.9316 231.385 23.1933C231.498 23.4549 231.61 23.6886 231.722 23.8941L233.796 27.6507C234.114 28.2301 234.385 28.8002 234.609 29.3608C234.852 29.9215 235.049 30.4168 235.198 30.8467C235.366 30.4542 235.609 29.9683 235.927 29.3889C236.245 28.8095 236.562 28.2301 236.88 27.6507L238.674 24.4268C238.861 24.1091 238.992 23.81 239.067 23.5297C239.142 23.2307 239.179 22.969 239.179 22.7447C239.179 21.9224 238.618 21.5112 237.497 21.5112H236.684V20.3338H243.524V21.5112H243.188C242.795 21.5112 242.431 21.6701 242.095 21.9878C241.758 22.2868 241.347 22.8569 240.861 23.6979L236.151 31.9961V37.1544C236.151 38.0328 236.376 38.5935 236.824 38.8365C237.273 39.0607 237.815 39.1729 238.45 39.1729H239.095V40.3503H230.376Z" fill="#35BDF3"/>
</svg>
