<svg width="65" height="60" viewBox="0 0 65 60" fill="none" xmlns="http://www.w3.org/2000/svg">
<mask id="path-1-inside-1" fill="white">
<path fill-rule="evenodd" clip-rule="evenodd" d="M57.4456 33.5996C61.4913 30.0908 64.05 24.9127 64.05 19.1369C64.05 8.56789 55.4821 0 44.9131 0C39.9485 0 35.4255 1.89043 32.0246 4.99072C28.6238 1.89083 24.1011 0.00066052 19.1369 0.00066052C8.56789 0.00066052 0 8.56855 0 19.1376C0 24.9141 2.55942 30.0929 6.60611 33.6018L31.1727 59.6327C31.6351 60.1227 32.4145 60.1227 32.8769 59.6327L57.4456 33.5996Z"/>
</mask>
<path d="M57.4456 33.5996L55.3985 31.2393L55.2805 31.3416L55.1733 31.4552L57.4456 33.5996ZM32.0246 4.99072L29.9199 7.29979L32.0247 9.21841L34.1295 7.29968L32.0246 4.99072ZM6.60611 33.6018L8.87838 31.4573L8.77107 31.3436L8.65294 31.2412L6.60611 33.6018ZM31.1727 59.6327L33.445 57.4883L33.445 57.4883L31.1727 59.6327ZM32.8769 59.6327L35.1492 61.7772L35.1492 61.7772L32.8769 59.6327ZM59.4927 35.96C64.1935 31.883 67.1744 25.8563 67.1744 19.1369H60.9256C60.9256 23.9691 58.7891 28.2986 55.3985 31.2393L59.4927 35.96ZM67.1744 19.1369C67.1744 6.84234 57.2076 -3.1244 44.9131 -3.1244V3.1244C53.7565 3.1244 60.9256 10.2935 60.9256 19.1369H67.1744ZM44.9131 -3.1244C39.1398 -3.1244 33.8736 -0.922596 29.9198 2.68175L34.1295 7.29968C36.9775 4.70346 40.7572 3.1244 44.9131 3.1244V-3.1244ZM34.1294 2.68164C30.1757 -0.922248 24.9098 -3.12374 19.1369 -3.12374V3.12506C23.2925 3.12506 27.072 4.7039 29.9199 7.29979L34.1294 2.68164ZM19.1369 -3.12374C6.84234 -3.12374 -3.1244 6.843 -3.1244 19.1376H3.1244C3.1244 10.2941 10.2935 3.12506 19.1369 3.12506V-3.12374ZM-3.1244 19.1376C-3.1244 25.8579 -0.142684 31.8853 4.55928 35.9623L8.65294 31.2412C5.26152 28.3005 3.1244 23.9704 3.1244 19.1376H-3.1244ZM33.445 57.4883L8.87838 31.4573L4.33384 35.7462L28.9005 61.7772L33.445 57.4883ZM30.6047 57.4883C31.3754 56.6717 32.6743 56.6717 33.445 57.4883L28.9005 61.7772C30.596 63.5738 33.4537 63.5738 35.1492 61.7772L30.6047 57.4883ZM55.1733 31.4552L30.6047 57.4883L35.1492 61.7772L59.7178 35.7441L55.1733 31.4552Z" fill="#35BDF3" mask="url(#path-1-inside-1)"/>
<mask id="path-3-inside-2" fill="white">
<path fill-rule="evenodd" clip-rule="evenodd" d="M33.0107 5.445C32.5483 4.95502 31.7689 4.95502 31.3065 5.445L18.1266 19.4105C18.121 19.4165 18.1154 19.4225 18.1099 19.4285C15.8684 21.3688 14.4503 24.2349 14.4503 27.4323C14.4503 33.2763 19.1879 38.0139 25.0319 38.0139C27.777 38.0139 30.2779 36.9686 32.1584 35.2544C34.0389 36.9686 36.5398 38.0139 39.2848 38.0139C45.1289 38.0139 49.8664 33.2763 49.8664 27.4323C49.8664 24.2359 48.4492 21.3705 46.2088 19.4303C46.2028 19.4236 46.1967 19.417 46.1905 19.4105L33.0107 5.445Z"/>
</mask>
<path d="M31.3065 5.445L29.0342 3.30055L29.0342 3.30055L31.3065 5.445ZM33.0107 5.445L35.283 3.30055L35.283 3.30055L33.0107 5.445ZM18.1266 19.4105L20.3989 21.5549L20.3989 21.5549L18.1266 19.4105ZM18.1099 19.4285L20.1547 21.7908L20.2967 21.668L20.4229 21.529L18.1099 19.4285ZM32.1584 35.2544L34.2632 32.9454L32.1584 31.0266L30.0535 32.9454L32.1584 35.2544ZM46.2088 19.4303L43.8921 21.5265L44.0197 21.6676L44.1634 21.7921L46.2088 19.4303ZM46.1905 19.4105L48.4628 17.266L48.4628 17.266L46.1905 19.4105ZM33.5788 7.58944C32.8081 8.40607 31.5091 8.40606 30.7384 7.58944L35.283 3.30055C33.5875 1.50398 30.7297 1.50397 29.0342 3.30055L33.5788 7.58944ZM20.3989 21.5549L33.5788 7.58944L29.0342 3.30055L15.8544 17.266L20.3989 21.5549ZM20.4229 21.529C20.415 21.5377 20.407 21.5463 20.3989 21.5549L15.8544 17.266C15.835 17.2866 15.8158 17.3073 15.7969 17.3281L20.4229 21.529ZM16.0651 17.0662C13.1671 19.5747 11.3259 23.2902 11.3259 27.4323H17.5747C17.5747 25.1796 18.5696 23.1629 20.1547 21.7908L16.0651 17.0662ZM11.3259 27.4323C11.3259 35.0019 17.4623 41.1383 25.0319 41.1383V34.8895C20.9134 34.8895 17.5747 31.5508 17.5747 27.4323H11.3259ZM25.0319 41.1383C28.5857 41.1383 31.8298 39.7816 34.2632 37.5633L30.0535 32.9454C28.726 34.1555 26.9683 34.8895 25.0319 34.8895V41.1383ZM30.0535 37.5633C32.4869 39.7816 35.7311 41.1383 39.2848 41.1383V34.8895C37.3485 34.8895 35.5908 34.1555 34.2632 32.9454L30.0535 37.5633ZM39.2848 41.1383C46.8545 41.1383 52.9908 35.0019 52.9908 27.4323H46.742C46.742 31.5508 43.4033 34.8895 39.2848 34.8895V41.1383ZM52.9908 27.4323C52.9908 23.2915 51.1507 19.5769 48.2543 17.0685L44.1634 21.7921C45.7477 23.1641 46.742 25.1803 46.742 27.4323H52.9908ZM43.9183 21.5549C43.9093 21.5454 43.9006 21.536 43.8921 21.5265L48.5256 17.334C48.5051 17.3113 48.4842 17.2886 48.4628 17.266L43.9183 21.5549ZM30.7384 7.58944L43.9183 21.5549L48.4628 17.266L35.283 3.30055L30.7384 7.58944Z" fill="#35BDF3" mask="url(#path-3-inside-2)"/>
<mask id="path-5-inside-3" fill="white">
<path fill-rule="evenodd" clip-rule="evenodd" d="M25.292 28.8261C25.4801 29.0706 25.6924 29.2955 25.9253 29.4972L31.9867 35.9198L38.0497 29.4955C38.2815 29.2945 38.493 29.0705 38.6804 28.8271L38.8446 28.6531H38.808C39.3238 27.9137 39.6263 27.0144 39.6263 26.0445C39.6263 23.5233 37.5825 21.4795 35.0613 21.4795C33.8769 21.4795 32.7978 21.9306 31.9865 22.6703C31.1753 21.9309 30.0964 21.48 28.9123 21.48C26.3911 21.48 24.3473 23.5238 24.3473 26.045C24.3473 27.0147 24.6497 27.9138 25.1653 28.6531H25.1288L25.292 28.8261Z"/>
</mask>
<path d="M25.292 28.8261L27.7683 26.9209L27.6723 26.7962L27.5643 26.6817L25.292 28.8261ZM25.9253 29.4972L28.1976 27.3527L28.0896 27.2383L27.9707 27.1353L25.9253 29.4972ZM31.9867 35.9198L29.7144 38.0643L31.9867 40.472L34.2589 38.0643L31.9867 35.9198ZM38.0497 29.4955L36.0034 27.1344L35.8849 27.2371L35.7774 27.351L38.0497 29.4955ZM38.6804 28.8271L36.4081 26.6827L36.3005 26.7967L36.2049 26.9209L38.6804 28.8271ZM38.8446 28.6531L41.1169 30.7976L46.0893 25.5287H38.8446V28.6531ZM38.808 28.6531L36.2454 26.8656L32.819 31.7775H38.808V28.6531ZM31.9865 22.6703L29.8818 24.9794L31.9868 26.8982L34.0916 24.9791L31.9865 22.6703ZM25.1653 28.6531V31.7775H31.1532L27.728 26.8659L25.1653 28.6531ZM25.1288 28.6531V25.5287H17.884L22.8565 30.7976L25.1288 28.6531ZM22.8157 30.7313C23.1319 31.1423 23.4886 31.5202 23.88 31.859L27.9707 27.1353C27.8962 27.0708 27.8283 26.9989 27.7683 26.9209L22.8157 30.7313ZM34.2589 33.7754L28.1976 27.3527L23.653 31.6416L29.7144 38.0643L34.2589 33.7754ZM35.7774 27.351L29.7144 33.7754L34.2589 38.0643L40.3219 31.6399L35.7774 27.351ZM40.096 31.8565C40.4856 31.5188 40.8408 31.1425 41.1559 30.7333L36.2049 26.9209C36.1451 26.9985 36.0775 27.0702 36.0034 27.1344L40.096 31.8565ZM36.5723 26.5087L36.4081 26.6827L40.9527 30.9716L41.1169 30.7976L36.5723 26.5087ZM38.808 31.7775H38.8446V25.5287H38.808V31.7775ZM41.3705 30.4407C42.2402 29.1939 42.7507 27.6741 42.7507 26.0445H36.5019C36.5019 26.3547 36.4073 26.6335 36.2454 26.8656L41.3705 30.4407ZM42.7507 26.0445C42.7507 21.7977 39.308 18.3551 35.0613 18.3551V24.6039C35.8569 24.6039 36.5019 25.2489 36.5019 26.0445H42.7507ZM35.0613 18.3551C33.068 18.3551 31.2457 19.1176 29.8814 20.3615L34.0916 24.9791C34.35 24.7435 34.6857 24.6039 35.0613 24.6039V18.3551ZM34.0913 20.3612C32.7271 19.1178 30.9051 18.3556 28.9123 18.3556V24.6044C29.2878 24.6044 29.6235 24.7439 29.8818 24.9794L34.0913 20.3612ZM28.9123 18.3556C24.6655 18.3556 21.2229 21.7982 21.2229 26.045H27.4717C27.4717 25.2494 28.1167 24.6044 28.9123 24.6044V18.3556ZM21.2229 26.045C21.2229 27.6742 21.7331 29.1937 22.6025 30.4403L27.728 26.8659C27.5662 26.6339 27.4717 26.3551 27.4717 26.045H21.2229ZM25.1288 31.7775H25.1653V25.5287H25.1288V31.7775ZM27.5643 26.6817L27.401 26.5087L22.8565 30.7976L23.0198 30.9706L27.5643 26.6817Z" fill="#35BDF3" mask="url(#path-5-inside-3)"/>
</svg>
