<svg width="80" height="80" viewBox="0 0 80 80" fill="none" xmlns="http://www.w3.org/2000/svg">
<path d="M66.6667 70.0002C54.8667 72.6668 44.5001 73.3335 36.6667 73.3335C24.5001 73.3335 14.2667 71.7002 6.66675 70.0002C6.66675 55.2668 20.1001 43.3335 36.6667 43.3335C53.2334 43.3335 66.6667 55.2668 66.6667 70.0002Z" stroke="#35BDF3" stroke-width="4" stroke-miterlimit="10" stroke-linecap="round" stroke-linejoin="round"/>
<path d="M36.6666 33.3332C44.0303 33.3332 49.9999 27.3636 49.9999 19.9998C49.9999 12.636 44.0303 6.6665 36.6666 6.6665C29.3028 6.6665 23.3333 12.636 23.3333 19.9998C23.3333 27.3636 29.3028 33.3332 36.6666 33.3332Z" stroke="#35BDF3" stroke-width="4" stroke-miterlimit="10" stroke-linecap="round" stroke-linejoin="round"/>
<path d="M56.6667 13.3335H76.6667" stroke="#35BDF3" stroke-width="4" stroke-miterlimit="10" stroke-linejoin="round"/>
<path d="M66.6667 3.3335V23.3335" stroke="#35BDF3" stroke-width="4" stroke-miterlimit="10" stroke-linejoin="round"/>
</svg>
