<svg xmlns="http://www.w3.org/2000/svg" width="123" height="78.141" viewBox="0 0 123 78.141">
  <g id="visa" transform="translate(-1 -1)">
    <path id="Path_1" data-name="Path 1" d="M1,2.729V75.694H124V2.729Z" transform="translate(0 0.773)" fill="#f1f2f2"/>
    <rect id="Rectangle_1" data-name="Rectangle 1" width="123" height="40.487" transform="translate(1 19.826)" fill="#f1f2f2"/>
    <path id="Path_2" data-name="Path 2" d="M1,41.988V57.393a3.344,3.344,0,0,0,1.642,2.828,3.942,3.942,0,0,0,2.11.6h115.5a3.965,3.965,0,0,0,2.11-.593A3.346,3.346,0,0,0,124,57.4V41.988Z" transform="translate(0 18.324)" fill="#faa61a"/>
    <path id="Path_3" data-name="Path 3" d="M122.358,1.593A3.982,3.982,0,0,0,120.248,1H4.752a3.973,3.973,0,0,0-2.108.593A3.346,3.346,0,0,0,1,4.422v15.4H124V4.422A3.345,3.345,0,0,0,122.358,1.593Z" fill="#00589f"/>
    <path id="Path_4" data-name="Path 4" d="M73.718,34.793H66.661l4.4-11.568Z" transform="translate(29.354 9.936)" fill="#f1f2f2"/>
    <g id="Group_1" data-name="Group 1" transform="translate(12.853 24.68)">
      <path id="Path_5" data-name="Path 5" d="M33.5,47.376l5.05-29.656h8.089L41.576,47.376Z" transform="translate(1.676 -17.205)" fill="#00589f"/>
      <path id="Path_6" data-name="Path 6" d="M66.838,18.608a20.906,20.906,0,0,0-7.25-1.244c-7.985,0-13.611,4.021-13.659,9.788-.045,4.26,4.016,6.639,7.083,8.057,3.146,1.454,4.205,2.382,4.191,3.68-.026,1.987-2.515,2.891-4.842,2.891a16.92,16.92,0,0,1-7.606-1.553l-1.042-.472L42.58,46.4a25.766,25.766,0,0,0,9.005,1.582c8.5,0,14.013-3.978,14.076-10.134.03-3.37-2.12-5.939-6.785-8.057-2.829-1.375-4.558-2.288-4.542-3.676,0-1.236,1.467-2.551,4.632-2.551a14.856,14.856,0,0,1,6.046,1.134l.729.343,1.1-6.429Z" transform="translate(5.736 -17.364)" fill="#00589f"/>
      <path id="Path_7" data-name="Path 7" d="M80.614,17.739H74.368c-1.936,0-3.383.528-4.234,2.459l-12,27.182h8.49s1.382-3.654,1.7-4.458c.928,0,9.174.014,10.352.014.24,1.039.984,4.445.984,4.445h7.5L80.614,17.739ZM70.645,36.856c.67-1.709,3.223-8.29,3.223-8.29-.045.077.664-1.719,1.071-2.833l.546,2.557s1.545,7.08,1.874,8.567Z" transform="translate(12.688 -17.196)" fill="#00589f"/>
      <path id="Path_8" data-name="Path 8" d="M34.978,17.735,27.063,37.961l-.847-4.11c-1.47-4.738-6.06-9.872-11.194-12.442l7.237,25.94,8.554-.013,12.727-29.6H34.978Z" transform="translate(-6.584 -17.198)" fill="#00589f"/>
      <path id="Path_9" data-name="Path 9" d="M22.33,17.722H9.291l-.1.618C19.332,20.8,26.043,26.73,28.825,33.858l-2.832-13.63c-.489-1.88-1.909-2.438-3.663-2.506Z" transform="translate(-9.191 -17.204)" fill="#f9a51a"/>
    </g>
  </g>
</svg>
